<svg xmlns="http://www.w3.org/2000/svg" version="1.2" viewBox="0 0 24 24">
  <style>
    rect {
      shape-rendering: crispEdges;
    }
  </style>
  <g fill="#000000">
    <rect x="10" y="3" width="3" height="1"/>
    <rect x="6" y="4" width="4" height="1"/>
    <rect x="13" y="4" width="4" height="1"/>
    <rect x="5" y="5" width="1" height="1"/>
    <rect x="17" y="5" width="1" height="1"/>
    <!-- ... other black pixels ... -->
  </g>
  
  <g fill="#26314a">
    <rect x="10" y="4" width="3" height="1"/>
    <rect x="6" y="5" width="5" height="1"/>
    <rect x="12" y="5" width="4" height="1"/>
    <!-- ... other dark blue pixels ... -->
  </g>

  <g fill="#ffd800">
    <rect x="11" y="5" width="1" height="1"/>
  </g>

  <g fill="#ffffff">
    <rect x="7" y="7" width="1" height="1"/>
    <rect x="9" y="7" width="1" height="1"/>
    <rect x="11" y="7" width="1" height="1"/>
    <rect x="13" y="7" width="1" height="1"/>
    <rect x="15" y="7" width="1" height="1"/>
  </g>

  <g fill="#ae8b61">
    <rect x="7" y="9" width="2" height="1"/>
    <rect x="7" y="10" width="9" height="1"/>
    <!-- ... other skin tone pixels ... -->
  </g>

  <g fill="#d60000">
    <rect x="12" y="14" width="2" height="2"/>
  </g>

  <g fill="#a66e2c">
    <rect x="9" y="16" width="7" height="1"/>
    <rect x="7" y="17" width="10" height="1"/>
    <!-- ... other darker skin tone pixels ... -->
  </g>

  <rect width="24" height="24" fill="#6565FF" style="opacity: 0.2"/>
</svg>